<?xml version="1.0" encoding="utf-8"?>
<!-- Generator: Adobe Illustrator 24.0.1, SVG Export Plug-In . SVG Version: 6.00 Build 0)  -->
<svg version="1.1" id="Lag_1" xmlns="http://www.w3.org/2000/svg" xmlns:xlink="http://www.w3.org/1999/xlink" x="0px" y="0px"
	 viewBox="0 0 141.73 141.73" style="enable-background:new 0 0 141.73 141.73;" xml:space="preserve">
<style type="text/css">
	.st0{fill:none;}
	.st1{font-family:'Simplifica';}
	.st2{font-size:9.6999px;}
	.st3{letter-spacing:2;}
	.st4{fill:#43B27F;}
	.st5{font-family:'Aftasans';}
	.st6{font-size:14.5498px;}
	.st7{fill:none;stroke:#ADA08A;stroke-width:0.05;stroke-miterlimit:10;}
	.st8{opacity:0.5;fill:none;stroke:#E5D4B4;stroke-width:0.05;stroke-miterlimit:10;}
	.st9{fill:#FAE8D3;}
	.st10{fill:none;stroke:#020203;stroke-width:0.03;stroke-miterlimit:10;}
</style>
<rect x="11.64" y="94.82" class="st0" width="122.75" height="10.82"/>
<text transform="matrix(1 0 0 1 40.5723 101.7637)" class="st1 st2 st3">FOLKEKØKKEN</text>
<rect x="2.24" y="78.68" class="st0" width="184.25" height="21.54"/>
<text transform="matrix(1 0 0 1 2.2393 90.2207)" class="st4 st5 st6">Æggets &amp; Skæggets</text>
<path class="st7" d="M133.3,87.01c0.41,0.11,0.73,0.13,0.95,0.14c0.59,0.02,0.91-0.09,1.46,0.03c0.22,0.05,0.39,0.12,0.49,0.16"/>
<path class="st8" d="M131.93,89.37c0.54,0,1.01,0.01,1.36,0.02c1.09,0.03,1.54,0.1,1.75,0.13c0.31,0.05,0.56,0.11,0.74,0.15"/>
<path class="st9" d="M131.72,94.24c0.06-0.08,0.12-0.16,0.18-0.24"/>
<path class="st10" d="M128.27,83.83c0.02,0.31,0.02,0.56,0.03,0.72c0.02,0.84,0,1.11,0.12,1.53c0.07,0.23,0.16,0.41,0.22,0.52"/>
<g>
	<path d="M66.18,48.06c0.14,0.81,0.17,1.63,0.26,2.44c0.07,0.82,0.14,1.63,0.27,2.44l-0.03-0.04c0.18-0.02,0.34-0.42,0.67-0.44
		c0.35,0.02,0.51,0.33,0.65,0.56c0.27,0.5,0.42,1.08,0.38,1.66c-0.13,1.14-0.51,2.21-0.61,3.33c-0.07,0.56-0.09,1.12-0.12,1.68
		c-0.02,0.28-0.03,0.57-0.1,0.85c-0.06,0.28-0.24,0.58-0.52,0.71c-0.27,0.14-0.56,0.16-0.82,0.25c-0.26,0.08-0.45,0.26-0.52,0.51
		c-0.07,0.24,0,0.53-0.03,0.82c-0.01,0.29-0.06,0.57-0.11,0.85c-0.22,1.12-0.57,2.2-1,3.26c-0.53,1.03-1.19,1.94-1.81,2.88
		c-0.31,0.47-0.64,0.93-0.97,1.4c-0.35,0.45-0.62,0.96-1.04,1.35c-0.8,0.82-1.76,1.5-2.83,1.95c-1.07,0.45-2.24,0.65-3.4,0.57
		c-1.16-0.08-2.27-0.34-3.36-0.74c-1.08-0.4-2.07-1.01-3-1.67c-0.93-0.64-1.85-1.34-2.67-2.13c-0.83-0.78-1.6-1.64-2.3-2.53
		c-0.69-0.87-1.46-1.84-1.67-3.05c-0.11-0.58-0.14-1.16-0.16-1.73l-0.02-0.75c-0.02,0.01,0.13,0.18,0.22,0.15
		c0.26-0.03,0.23-0.15,0.25-0.15c0.01-0.02,0-0.01,0,0l-0.02,0.11c-0.02,0.08-0.04,0.17-0.1,0.27c-0.09,0.21-0.37,0.36-0.57,0.35
		c-0.4,0-0.69-0.16-0.96-0.34c-0.26-0.19-0.49-0.45-0.62-0.77c-0.13-0.32-0.14-0.65-0.17-0.91c-0.03-0.24-0.1-0.51-0.18-0.77
		c-0.35-1.05-0.68-2.15-1.16-3.12c-0.12-0.24-0.27-0.49-0.38-0.81c-0.1-0.31-0.13-0.61-0.16-0.91c-0.03-0.59-0.04-1.2,0.26-1.83
		c0.14-0.31,0.44-0.61,0.83-0.7c0.38-0.09,0.72,0,0.93,0c0.2-0.01,0.2-0.03,0.26-0.21c0.03-0.18-0.02-0.45-0.08-0.7
		c-0.14-0.5-0.31-1.16-0.28-1.75c0.01-0.59,0.07-1.16,0.14-1.72c0.15-1.11,0.26-2.27,0.58-3.39c0.31-1.11,0.74-2.19,1.3-3.21
		c0.55-1.01,1.22-1.97,1.98-2.83c0.38-0.43,0.79-0.84,1.24-1.23c0.47-0.37,0.94-0.69,1.45-0.98c2.02-1.15,4.33-1.72,6.63-1.75
		c2.29-0.04,4.61,0.41,6.66,1.46c1.01,0.53,1.99,1.18,2.74,2.05c0.77,0.84,1.4,1.8,1.96,2.78C65.17,43.62,65.85,45.82,66.18,48.06z
		 M66.11,48.07c-0.36-2.22-1.07-4.4-2.2-6.34c-0.56-0.97-1.23-1.89-2-2.69c-0.75-0.82-1.72-1.41-2.71-1.9
		c-2.01-0.96-4.27-1.33-6.48-1.23c-2.21,0.08-4.41,0.66-6.3,1.78c-0.96,0.55-1.79,1.24-2.51,2.08c-0.73,0.83-1.36,1.74-1.89,2.7
		c-0.53,0.97-0.94,2-1.24,3.06c-0.31,1.06-0.41,2.16-0.56,3.28c-0.06,0.56-0.13,1.11-0.13,1.65c-0.02,0.55,0.09,0.99,0.25,1.58
		c0.06,0.29,0.14,0.59,0.08,0.97c-0.03,0.19-0.13,0.41-0.32,0.56c-0.19,0.16-0.45,0.2-0.61,0.19c-0.69-0.08-0.95-0.09-1.17,0.34
		c-0.2,0.4-0.23,0.96-0.2,1.49c0.02,0.57,0.16,0.95,0.45,1.49c0.51,1.06,0.82,2.14,1.17,3.23c0.08,0.28,0.16,0.56,0.2,0.88
		c0.02,0.3,0.04,0.54,0.12,0.75c0.14,0.4,0.66,0.77,1.02,0.77c0.08-0.01,0.08-0.01,0.12-0.06c0.02-0.03,0.03-0.07,0.04-0.13
		l0.02-0.1c0.01-0.02,0.01-0.04,0.03-0.1c0.03-0.02,0.01-0.15,0.29-0.19c0.1-0.02,0.27,0.16,0.25,0.19
		c0.07,0.29,0.04,0.35,0.05,0.52l0.01,0.42c0.01,0.56,0.03,1.11,0.13,1.64c0.17,1.06,0.85,1.95,1.54,2.83
		c0.69,0.89,1.42,1.73,2.23,2.5c0.81,0.78,1.68,1.46,2.61,2.11c0.91,0.65,1.86,1.24,2.89,1.64c1.03,0.38,2.14,0.65,3.23,0.73
		c1.1,0.08,2.21-0.1,3.23-0.52c1.02-0.41,1.94-1.06,2.72-1.85c0.41-0.38,0.69-0.87,1.03-1.31c0.33-0.45,0.66-0.9,0.98-1.37
		c0.63-0.93,1.31-1.85,1.83-2.82c0.43-1.02,0.8-2.1,1.03-3.19c0.05-0.27,0.1-0.55,0.12-0.82c0.04-0.27-0.04-0.55,0.05-0.86
		c0.08-0.31,0.35-0.54,0.64-0.62c0.28-0.09,0.57-0.12,0.8-0.23c0.5-0.23,0.51-0.89,0.56-1.43c0.03-0.56,0.06-1.13,0.13-1.69
		c0.11-1.13,0.5-2.22,0.62-3.32c0.04-0.55-0.09-1.11-0.36-1.6c-0.13-0.23-0.31-0.51-0.56-0.51c-0.12,0-0.23,0.1-0.33,0.19
		c-0.11,0.08-0.16,0.26-0.39,0.24l-0.03,0l-0.01-0.04c-0.12-0.81-0.19-1.63-0.26-2.44C66.27,49.7,66.24,48.87,66.11,48.07z"/>
</g>
<g>
	<path d="M74.43,40.4c-0.7,0.29-1.38,0.67-1.91,1.21c-0.52,0.54-0.77,1.3-0.85,2.05c-0.16,1.51-0.15,3.07-0.82,4.58
		c-0.05,0.05-0.01,0.11-0.24,0.2c-0.03,0.01-0.06,0.01-0.1,0.01c-0.04-0.01-0.1-0.03-0.12-0.05c-0.06-0.06-0.07-0.08-0.09-0.11
		c-0.02-0.05-0.03-0.08-0.04-0.11c-0.02-0.12-0.04-0.21-0.05-0.31l-0.06-0.58l-0.09-1.15c-0.05-0.77-0.12-1.53-0.11-2.32
		c0-1.57,0.37-3.15,1.07-4.56c0.72-1.41,1.77-2.63,3.04-3.55c1.28-0.91,2.73-1.5,4.21-1.94c1.49-0.4,3.03-0.63,4.58-0.59
		c0.77,0.03,1.54,0.12,2.3,0.27c0.77,0.14,1.49,0.43,2.23,0.68c1.45,0.58,2.76,1.46,3.91,2.53c1.19,1.03,2.07,2.41,2.69,3.83
		c0.32,0.72,0.57,1.47,0.78,2.21l0.31,1.12c0.02,0.1,0.05,0.2,0.06,0.35c0,0.04,0,0.08-0.01,0.15c-0.01,0.05-0.03,0.25-0.3,0.34
		c-0.26,0.04-0.29-0.04-0.35-0.06c-0.04-0.03-0.08-0.06-0.1-0.08c-0.19-0.19-0.29-0.34-0.42-0.5l-2.61-3.79
		c-0.21-0.31-0.42-0.59-0.68-0.82c-0.26-0.23-0.56-0.48-0.84-0.62c-0.57-0.31-1.22-0.14-1.96,0.14l-2.14,0.78
		c-0.69,0.29-1.48,0.54-2.23,0.68c-1.53,0.29-3.08,0.42-4.63,0.23c-0.39-0.04-0.77-0.19-1.12-0.32c-0.36-0.11-0.73-0.22-1.1-0.26
		C75.9,39.92,75.14,40.11,74.43,40.4z M74.4,40.33c0.7-0.3,1.47-0.52,2.26-0.44c0.39,0.04,0.76,0.13,1.14,0.24
		c0.37,0.13,0.71,0.25,1.1,0.27c1.51,0.11,3.04-0.11,4.5-0.48c0.74-0.19,1.41-0.45,2.12-0.77l2.15-0.87
		c0.36-0.15,0.72-0.28,1.15-0.35c0.45-0.07,0.92,0.01,1.32,0.21c0.41,0.21,0.7,0.46,1.01,0.73c0.31,0.28,0.57,0.62,0.79,0.94
		l2.61,3.78c0.1,0.15,0.22,0.31,0.31,0.39c0.01,0.01,0.01,0.01,0.01,0.01c-0.02,0-0.01-0.05-0.22-0.03
		c-0.22,0.08-0.22,0.23-0.22,0.23c0,0.02,0,0.02,0,0.01c0-0.04-0.02-0.14-0.04-0.22l-0.28-1.1c-0.2-0.73-0.42-1.45-0.71-2.13
		c-1.1-2.79-3.41-5.01-6.14-6.27c-2.75-1.28-5.99-1.38-8.89-0.48c-1.45,0.44-2.86,1.09-4.04,2.02c-1.18,0.93-2.12,2.14-2.75,3.49
		c-0.66,1.34-0.93,2.83-0.99,4.32c-0.04,0.75,0.01,1.52,0.05,2.28l0.05,1.14l0.02,0.57c0.01,0.09,0.01,0.19,0.02,0.26
		c0,0.02,0,0.03,0,0.03c-0.01-0.01,0-0.01-0.05-0.06c-0.05-0.04-0.13-0.05-0.15-0.04c-0.13,0.06-0.04,0.03-0.04,0
		c0.32-0.59,0.52-1.39,0.67-2.11c0.15-0.74,0.2-1.51,0.34-2.27c0.14-0.75,0.38-1.54,0.95-2.1C73,40.98,73.69,40.61,74.4,40.33z"/>
</g>
<g>
	<path d="M95.44,47.98c-0.23,0.61-0.33,1.27-0.28,1.92l0,0l-0.04,4.29c0,1.41-0.16,2.93-1.03,4.12c-0.24,0.28-0.62,0.45-0.99,0.46
		c-0.37,0-0.73-0.05-1.08-0.19c-0.67-0.3-1.22-0.75-1.88-1.04c-0.64-0.31-1.3-0.58-1.97-0.79c-0.33-0.09-0.69-0.21-1-0.15
		c-0.31,0.05-0.5,0.38-0.72,0.65l-0.32,0.43c-0.11,0.12-0.17,0.33-0.42,0.42c-0.46,0.09-0.77-0.12-1.11-0.23
		c-0.17-0.06-0.34-0.13-0.5-0.21c-0.16-0.09-0.27-0.09-0.44-0.08c-0.31,0.04-0.59,0.25-0.84,0.49c-0.25,0.21-0.4,0.53-0.62,0.83
		c-0.21,0.29-0.43,0.59-0.69,0.85c-0.24,0.24-0.43,0.53-0.59,0.83c-0.16,0.3-0.29,0.65-0.49,0.96c-0.2,0.31-0.4,0.61-0.68,0.88
		c-0.33,0.29-0.77,0.35-1.15,0.3c-0.77-0.1-1.44-0.6-1.9-1.15c-0.98-1.1-1.58-2.41-2.34-3.63l-0.01-0.01
		c-0.37-0.64-0.81-1.33-1.27-1.95c-0.23-0.31-0.47-0.62-0.73-0.91c-0.13-0.15-0.26-0.29-0.39-0.43c-0.13-0.13-0.29-0.3-0.38-0.35
		c-0.04-0.01,0.04,0.03,0.13-0.04c0.05-0.08,0.02-0.03,0.03-0.01c0,0.06,0.02,0.16,0.03,0.24c0.04,0.18,0.1,0.36,0.16,0.55
		c0.12,0.37,0.26,0.73,0.42,1.08c0.32,0.69,0.75,1.39,1.02,2.14l0.46,1.11c0.13,0.38,0.24,0.76,0.36,1.14l0.7,2.28l1.21,4.58
		c0.47,1.51,0.88,3.03,1.66,4.36c0.75,1.36,1.75,2.55,2.9,3.6c2.23,2.14,5.21,3.53,8.27,3.58c1.52,0.01,3.04-0.39,4.34-1.18
		c1.29-0.81,2.46-1.86,3.37-3.1c0.93-1.23,1.59-2.63,1.95-4.14c0.37-1.53,0.79-3.05,0.78-4.59c-0.06-3.11-1.12-6.15-1.9-9.2
		c-0.4-1.53-0.83-3.06-1.08-4.62c-0.09-0.79-0.3-1.54-0.47-2.32c-0.08-0.39-0.14-0.78-0.15-1.18c-0.02-0.2,0.04-0.41,0-0.58
		c-0.03-0.08-0.09-0.17-0.16-0.18C95.53,47.8,95.48,47.9,95.44,47.98z M95.38,47.96c0.04-0.08,0.08-0.22,0.23-0.22
		c0.13,0.03,0.19,0.13,0.23,0.23c0.06,0.22-0.01,0.4,0.02,0.6c0.01,0.39,0.08,0.78,0.16,1.16c0.17,0.77,0.4,1.53,0.5,2.32
		c0.27,1.55,0.73,3.07,1.17,4.58c0.87,3.03,2.03,6.01,2.2,9.26c0.06,1.64-0.36,3.21-0.7,4.75c-0.35,1.57-1.02,3.11-2,4.41
		c-0.96,1.32-2.18,2.42-3.57,3.28c-1.41,0.86-3.06,1.29-4.7,1.28c-3.29-0.04-6.42-1.56-8.71-3.81c-1.17-1.09-2.22-2.36-2.98-3.78
		c-0.8-1.42-1.21-2.99-1.67-4.5l-1.18-4.6l-0.68-2.25c-0.12-0.37-0.22-0.75-0.35-1.12l-0.44-1.09c-0.26-0.75-0.67-1.4-1.01-2.14
		c-0.16-0.37-0.3-0.75-0.43-1.13c-0.06-0.19-0.12-0.39-0.17-0.59c-0.02-0.11-0.04-0.21-0.04-0.34c0.01-0.07-0.02-0.14,0.09-0.29
		c0.04-0.07,0.18-0.11,0.25-0.1c0.07,0.01,0.12,0.03,0.15,0.04c0.25,0.15,0.35,0.3,0.5,0.44c0.14,0.15,0.27,0.3,0.41,0.45
		c0.26,0.3,0.51,0.62,0.74,0.95c0.47,0.65,0.89,1.3,1.3,2.03l-0.01-0.01c0.74,1.2,1.34,2.53,2.26,3.58c0.45,0.54,1,0.95,1.66,1.04
		c0.31,0.05,0.65-0.01,0.86-0.2c0.23-0.22,0.44-0.52,0.63-0.8c0.35-0.57,0.59-1.32,1.16-1.83c0.25-0.24,0.46-0.51,0.67-0.8
		c0.21-0.27,0.37-0.61,0.67-0.87c1.2-1.7,3.1,1.34,3.65-0.75c0.22-0.26,0.43-0.63,0.86-0.72c0.4-0.06,0.75,0.07,1.1,0.17
		c0.69,0.22,1.35,0.5,1.99,0.83c0.65,0.3,1.23,0.77,1.86,1.05c0.63,0.24,1.45,0.33,1.92-0.23c0.47-0.52,0.62-1.25,0.82-1.93
		c0.18-0.68,0.17-1.4,0.2-2.11l0.06-4.28l0,0C95.03,49.25,95.14,48.58,95.38,47.96z"/>
</g>
<g>
	<path d="M85.33,59.51c-0.72,0.38-1.29,0.98-1.8,1.59c-0.24,0.32-0.53,0.6-0.76,0.93l-0.16,0.24c-0.03,0.04-0.05,0.08-0.06,0.1
		c-0.01,0.01,0,0.02,0-0.01c0,0,0.01,0.01,0.01,0.02c0.03,0.09,0.22,0.2,0.38,0.27c1.45,0.54,3.2,0.62,4.7,0.07
		c0.75-0.26,1.44-0.68,2.01-1.22c0.29-0.27,0.58-0.56,0.68-0.86c0.1-0.29-0.09-0.56-0.41-0.75c-0.65-0.37-1.46-0.54-2.23-0.68
		C86.89,59.07,86.06,59.16,85.33,59.51z M85.31,59.47c1.46-0.73,3.28-0.73,4.81,0.05c0.19,0.11,0.38,0.26,0.51,0.48
		c0.14,0.21,0.18,0.52,0.08,0.76c-0.18,0.47-0.52,0.74-0.82,1.02c-0.62,0.56-1.41,0.93-2.2,1.15c-0.8,0.22-1.62,0.29-2.43,0.3
		c-0.82-0.02-1.64-0.01-2.46-0.27c-0.19-0.09-0.42-0.15-0.58-0.43c-0.02-0.04-0.03-0.07-0.04-0.12c-0.01-0.08,0.01-0.13,0.03-0.16
		c0.03-0.07,0.06-0.11,0.09-0.16c0.06-0.09,0.13-0.17,0.19-0.26c0.26-0.32,0.56-0.61,0.86-0.89c0.29-0.3,0.61-0.54,0.93-0.79
		C84.61,59.89,84.94,59.64,85.31,59.47z"/>
</g>
</svg>
