<?xml version="1.0" encoding="utf-8"?>
<!-- Generator: Adobe Illustrator 24.0.1, SVG Export Plug-In . SVG Version: 6.00 Build 0)  -->
<svg version="1.1" id="Lag_1" xmlns="http://www.w3.org/2000/svg" xmlns:xlink="http://www.w3.org/1999/xlink" x="0px" y="0px"
	 viewBox="0 0 108.09 83.33" style="enable-background:new 0 0 108.09 83.33;" xml:space="preserve">
<style type="text/css">
	.st0{fill:none;}
	.st1{fill:#43B27F;}
	.st2{font-family:'Aftasans';}
	.st3{font-size:19.3964px;}
	.st4{fill:none;stroke:#ADA08A;stroke-width:0.05;stroke-miterlimit:10;}
	.st5{opacity:0.5;fill:none;stroke:#E5D4B4;stroke-width:0.05;stroke-miterlimit:10;}
	.st6{fill:#FAE8D3;}
	.st7{fill:none;stroke:#020203;stroke-width:0.03;stroke-miterlimit:10;}
</style>
<rect x="-39.25" y="64.35" class="st0" width="176.17" height="28.72"/>
<text transform="matrix(1 0 0 1 20.0126 79.7278)" class="st1 st2 st3">Æ &amp; S</text>
<path class="st4" d="M94.05,55.52c0.41,0.11,0.73,0.13,0.95,0.14c0.59,0.02,0.91-0.09,1.46,0.03c0.22,0.05,0.39,0.12,0.49,0.16"/>
<path class="st5" d="M92.68,57.87c0.54,0,1.01,0.01,1.36,0.02c1.09,0.03,1.54,0.1,1.75,0.13c0.31,0.05,0.56,0.11,0.74,0.15"/>
<path class="st6" d="M92.47,62.74c0.06-0.08,0.12-0.16,0.18-0.24"/>
<path class="st7" d="M89.02,52.33c0.02,0.31,0.02,0.56,0.03,0.72c0.02,0.84,0,1.11,0.12,1.53c0.07,0.23,0.16,0.41,0.22,0.52"/>
<g>
	<path d="M48.96,21.48c0.18,1.08,0.22,2.17,0.34,3.26l0.15,1.63c0.04,0.55,0.14,1.08,0.21,1.62l-0.03-0.04
		c0.28-0.03,0.46-0.56,0.9-0.59c0.45,0.02,0.67,0.43,0.86,0.74c0.36,0.67,0.56,1.44,0.5,2.2c-0.06,0.76-0.27,1.49-0.42,2.22
		c-0.17,0.73-0.3,1.47-0.39,2.22c-0.09,0.74-0.12,1.49-0.17,2.25c-0.03,0.38-0.04,0.76-0.14,1.13c-0.08,0.37-0.31,0.76-0.69,0.93
		c-0.36,0.18-0.75,0.21-1.09,0.33c-0.35,0.11-0.62,0.36-0.71,0.7c-0.1,0.33,0,0.72-0.04,1.1c-0.02,0.38-0.08,0.76-0.15,1.13
		c-0.3,1.49-0.76,2.92-1.34,4.34c-0.7,1.36-1.59,2.58-2.42,3.83c-0.41,0.63-0.86,1.24-1.3,1.86c-0.46,0.6-0.83,1.28-1.39,1.8
		c-1.06,1.09-2.34,1.99-3.76,2.58c-1.41,0.59-2.97,0.85-4.5,0.76c-1.53-0.11-3.02-0.46-4.46-0.98c-1.44-0.54-2.75-1.35-3.98-2.22
		c-1.24-0.85-2.46-1.79-3.55-2.83c-1.11-1.04-2.12-2.18-3.05-3.37c-0.92-1.16-1.93-2.45-2.2-4.03c-0.15-0.77-0.18-1.53-0.2-2.29
		l-0.01-0.56c0-0.16-0.02-0.43-0.02-0.46c-0.02,0.01,0.12,0.17,0.22,0.14c0.26-0.03,0.23-0.15,0.25-0.15c0.01-0.02,0,0,0,0.02
		l-0.03,0.14c-0.02,0.11-0.06,0.22-0.12,0.34c-0.11,0.25-0.44,0.43-0.69,0.42c-0.5,0.01-0.88-0.2-1.22-0.44
		c-0.33-0.25-0.63-0.58-0.79-0.99c-0.17-0.4-0.18-0.83-0.22-1.18c-0.04-0.33-0.14-0.69-0.25-1.04c-0.47-1.41-0.91-2.87-1.55-4.18
		c-0.16-0.33-0.36-0.66-0.49-1.06c-0.13-0.4-0.17-0.8-0.2-1.19c-0.04-0.78-0.04-1.59,0.33-2.38c0.19-0.39,0.56-0.77,1.03-0.88
		c0.47-0.12,0.9,0,1.21,0c0.3,0,0.39-0.1,0.46-0.37c0.04-0.27-0.02-0.63-0.11-0.98c-0.08-0.36-0.2-0.7-0.28-1.11
		c-0.07-0.4-0.09-0.8-0.09-1.19c0.01-0.78,0.1-1.53,0.18-2.29c0.19-1.49,0.34-3.02,0.77-4.5c0.41-1.48,0.98-2.91,1.72-4.25
		c0.73-1.34,1.61-2.61,2.63-3.76c0.51-0.58,1.04-1.12,1.64-1.62c0.62-0.49,1.25-0.91,1.92-1.29c2.67-1.52,5.74-2.27,8.78-2.32
		c3.04-0.07,6.12,0.51,8.85,1.89c0.68,0.35,1.33,0.74,1.95,1.18c0.3,0.24,0.61,0.45,0.9,0.7c0.28,0.26,0.55,0.53,0.81,0.81
		c1.03,1.12,1.89,2.38,2.63,3.7C47.62,15.57,48.52,18.5,48.96,21.48z M48.89,21.49c-0.48-2.97-1.43-5.86-2.94-8.46
		c-0.75-1.29-1.62-2.52-2.65-3.61c-0.25-0.27-0.52-0.53-0.8-0.78c-0.28-0.24-0.59-0.44-0.89-0.67c-0.61-0.42-1.26-0.8-1.92-1.13
		c-2.68-1.3-5.7-1.82-8.67-1.7c-2.97,0.1-5.92,0.88-8.46,2.38c-0.63,0.37-1.24,0.81-1.81,1.25c-0.55,0.47-1.08,1-1.56,1.55
		c-0.98,1.11-1.83,2.33-2.54,3.63c-0.71,1.3-1.26,2.68-1.66,4.1c-0.41,1.42-0.55,2.9-0.75,4.4c-0.09,0.74-0.17,1.49-0.18,2.21
		c-0.03,0.74,0.12,1.37,0.33,2.14c0.08,0.38,0.18,0.78,0.11,1.25c-0.04,0.23-0.16,0.51-0.38,0.69c-0.22,0.19-0.53,0.24-0.75,0.23
		c-0.44-0.02-0.77-0.1-1.04-0.03c-0.26,0.06-0.48,0.26-0.62,0.54c-0.29,0.57-0.32,1.33-0.28,2.04c0.03,0.36,0.06,0.72,0.16,1.04
		c0.1,0.31,0.28,0.63,0.45,0.98c0.67,1.4,1.09,2.84,1.56,4.29c0.11,0.37,0.21,0.74,0.26,1.15c0.03,0.39,0.05,0.73,0.17,1.03
		c0.21,0.57,0.9,1.07,1.46,1.08c0.13-0.02,0.18-0.04,0.23-0.13c0.03-0.05,0.05-0.12,0.07-0.19l0.03-0.13
		c0.01-0.03,0.01-0.05,0.03-0.12c0.03-0.02,0.01-0.16,0.29-0.19c0.11-0.01,0.27,0.16,0.26,0.2c0.08,0.33,0.05,0.45,0.06,0.66
		l0.01,0.56c0.02,0.75,0.05,1.49,0.18,2.2c0.24,1.44,1.16,2.64,2.08,3.81c0.92,1.19,1.9,2.31,2.99,3.33
		c1.08,1.04,2.25,1.95,3.49,2.81c1.22,0.87,2.49,1.66,3.87,2.19c1.38,0.51,2.86,0.87,4.33,0.98c1.47,0.1,2.96-0.14,4.33-0.7
		c1.37-0.56,2.61-1.42,3.65-2.48c0.55-0.51,0.92-1.17,1.38-1.76c0.44-0.61,0.88-1.2,1.31-1.83c0.84-1.24,1.75-2.46,2.44-3.77
		c0.58-1.36,1.06-2.81,1.37-4.26c0.07-0.37,0.13-0.73,0.15-1.1c0.05-0.36-0.05-0.74,0.06-1.14c0.1-0.4,0.46-0.71,0.83-0.81
		c0.37-0.12,0.75-0.16,1.07-0.31c0.69-0.32,0.7-1.21,0.75-1.93c0.04-0.75,0.08-1.51,0.18-2.25c0.09-0.75,0.23-1.49,0.4-2.23
		c0.16-0.73,0.37-1.46,0.43-2.2c0.06-0.74-0.13-1.49-0.48-2.14c-0.17-0.31-0.41-0.68-0.76-0.69c-0.17,0.01-0.32,0.13-0.45,0.26
		c-0.14,0.11-0.22,0.34-0.5,0.32l-0.03,0l0-0.04c-0.07-0.54-0.16-1.08-0.2-1.63l-0.14-1.63C49.1,23.67,49.06,22.57,48.89,21.49z"/>
</g>
<g>
	<path d="M59.97,11.26c-0.94,0.38-1.84,0.9-2.56,1.61c-0.7,0.73-1.03,1.74-1.15,2.74c-0.22,2.02-0.24,4.09-1.12,6.08
		c-0.06,0.07-0.03,0.14-0.27,0.24c-0.04,0.01-0.07,0.01-0.1,0.01c-0.05-0.01-0.11-0.04-0.13-0.06c-0.07-0.06-0.07-0.09-0.09-0.12
		c-0.02-0.06-0.03-0.1-0.04-0.14c-0.03-0.15-0.04-0.27-0.06-0.41l-0.07-0.77l-0.11-1.53c-0.07-1.03-0.16-2.04-0.13-3.08
		c0.01-2.08,0.49-4.17,1.42-6.04c0.94-1.87,2.33-3.49,4-4.72c0.84-0.61,1.75-1.12,2.69-1.53c0.94-0.42,1.9-0.8,2.89-1.07
		c1.98-0.55,4.03-0.85,6.09-0.79c1.03,0.04,2.05,0.17,3.06,0.37c1.02,0.18,1.97,0.59,2.96,0.91c1.92,0.78,3.66,1.96,5.17,3.38
		c1.57,1.37,2.72,3.2,3.55,5.08c0.42,0.95,0.75,1.95,1.03,2.93l0.41,1.49c0.03,0.13,0.06,0.26,0.08,0.44c0,0.05,0,0.1-0.01,0.17
		c-0.01,0.05-0.04,0.27-0.31,0.36c-0.26,0.04-0.3-0.05-0.38-0.07c-0.05-0.03-0.09-0.07-0.12-0.1c-0.24-0.23-0.38-0.43-0.54-0.65
		l-3.48-5.05c-0.28-0.42-0.57-0.79-0.93-1.12c-0.35-0.31-0.76-0.65-1.15-0.85c-0.81-0.44-1.73-0.19-2.7,0.18
		c-0.95,0.35-1.9,0.69-2.85,1.05c-0.93,0.4-1.95,0.72-2.96,0.93c-2.03,0.4-4.1,0.59-6.15,0.34c-0.52-0.05-1.02-0.25-1.49-0.42
		c-0.48-0.15-0.98-0.29-1.48-0.34C61.92,10.62,60.91,10.87,59.97,11.26z M59.94,11.19c0.94-0.4,1.96-0.68,3-0.57
		c0.52,0.05,1.01,0.18,1.51,0.32c0.5,0.17,0.95,0.34,1.47,0.36c2.02,0.16,4.07-0.11,6.02-0.6c0.99-0.25,1.9-0.59,2.84-1.02
		c0.95-0.4,1.91-0.77,2.87-1.15c0.48-0.2,0.96-0.37,1.52-0.46C79.75,8,80.35,8.1,80.87,8.36c0.52,0.27,0.91,0.6,1.32,0.96
		c0.4,0.37,0.74,0.81,1.03,1.23l3.48,5.04c0.14,0.2,0.3,0.42,0.43,0.54l0.03,0.02c-0.02,0,0-0.04-0.2-0.02
		c-0.21,0.08-0.21,0.22-0.21,0.21c0,0.01,0,0,0-0.02c0-0.08-0.03-0.2-0.05-0.31l-0.38-1.47c-0.26-0.98-0.57-1.94-0.96-2.86
		c-0.8-1.85-1.83-3.59-3.32-4.96c-1.42-1.41-3.11-2.61-4.95-3.41c-0.95-0.34-1.88-0.77-2.87-0.97c-0.99-0.24-1.99-0.38-3.01-0.42
		c-2.02-0.08-4.07,0.19-6.02,0.77c-1.94,0.59-3.83,1.44-5.41,2.68c-1.59,1.24-2.86,2.86-3.72,4.66c-0.88,1.8-1.27,3.8-1.33,5.8
		c-0.04,1,0.02,2.03,0.07,3.04l0.07,1.53l0.04,0.76c0.01,0.12,0.02,0.25,0.04,0.35l0.01,0.05c-0.01-0.01,0-0.01-0.04-0.05
		c-0.04-0.03-0.12-0.05-0.14-0.04c-0.12,0.06-0.02,0-0.01-0.03c0.44-0.82,0.68-1.87,0.88-2.84c0.2-0.99,0.26-2.01,0.44-3.03
		c0.18-1,0.5-2.05,1.25-2.79C58.07,12.07,58.99,11.56,59.94,11.19z"/>
</g>
<g>
	<path d="M87.97,21.38c-0.31,0.81-0.44,1.7-0.38,2.57l0,0l-0.05,5.72c0,1.88-0.22,3.9-1.37,5.48c-0.32,0.37-0.81,0.6-1.3,0.61
		c-0.49,0-0.97-0.07-1.43-0.25c-0.89-0.4-1.63-1-2.5-1.39c-0.85-0.42-1.73-0.78-2.63-1.06c-0.45-0.13-0.92-0.28-1.35-0.2
		c-0.43,0.08-0.69,0.52-0.99,0.88l-0.43,0.57l-0.21,0.29c-0.06,0.1-0.2,0.23-0.33,0.26c-0.57,0.12-1-0.17-1.45-0.3
		c-0.22-0.08-0.45-0.17-0.67-0.28c-0.21-0.13-0.38-0.13-0.61-0.11c-0.43,0.06-0.81,0.34-1.15,0.66c-0.34,0.29-0.54,0.72-0.83,1.12
		c-0.28,0.39-0.57,0.78-0.92,1.12c-0.33,0.32-0.58,0.71-0.8,1.12c-0.21,0.4-0.39,0.87-0.66,1.28c-0.26,0.41-0.53,0.81-0.9,1.17
		C66.59,41,66.02,41.07,65.52,41c-0.5-0.08-0.97-0.25-1.4-0.53c-0.42-0.28-0.77-0.63-1.09-0.99c-0.64-0.73-1.19-1.52-1.65-2.36
		l-1.45-2.48l-0.01-0.01c-0.5-0.87-1.09-1.78-1.7-2.61c-0.31-0.42-0.63-0.83-0.97-1.22c-0.17-0.2-0.34-0.39-0.52-0.57
		c-0.18-0.18-0.38-0.4-0.53-0.48c-0.05-0.02,0.01,0.02,0.08-0.04c0.04-0.06,0.01,0,0.01,0.04c0,0.1,0.02,0.22,0.05,0.34
		c0.05,0.24,0.13,0.49,0.21,0.74c0.17,0.49,0.35,0.98,0.56,1.45c0.42,0.93,1,1.85,1.36,2.85c0.87,1.94,1.5,3.98,2.02,6.02l1.61,6.11
		c0.63,2.01,1.18,4.04,2.22,5.84c1.01,1.82,2.34,3.42,3.88,4.83c2.98,2.88,6.98,4.75,11.1,4.82c2.05,0.01,4.09-0.53,5.84-1.59
		c1.74-1.08,3.31-2.5,4.52-4.16c1.25-1.65,2.12-3.54,2.61-5.57c0.49-2.04,1.05-4.07,1.03-6.15c-0.09-4.17-1.53-8.21-2.59-12.28
		c-0.54-2.04-1.12-4.07-1.46-6.16c-0.12-1.05-0.41-2.06-0.63-3.09c-0.1-0.52-0.19-1.04-0.2-1.57c-0.02-0.26,0.06-0.54-0.01-0.78
		c-0.04-0.11-0.13-0.23-0.23-0.25C88.09,21.13,88.02,21.27,87.97,21.38z M87.91,21.35c0.05-0.11,0.11-0.29,0.3-0.28
		c0.16,0.04,0.24,0.17,0.29,0.3c0.07,0.28-0.01,0.53,0.02,0.8c0.01,0.52,0.1,1.04,0.21,1.55c0.23,1.02,0.53,2.04,0.66,3.09
		c0.36,2.07,0.96,4.09,1.55,6.11c1.14,4.04,2.68,8.03,2.88,12.34c0.08,2.17-0.49,4.25-0.95,6.3c-0.47,2.08-1.36,4.11-2.65,5.83
		c-1.27,1.74-2.89,3.2-4.72,4.35c-1.86,1.13-4.04,1.71-6.2,1.69c-2.17-0.02-4.29-0.55-6.26-1.42c-1.96-0.88-3.74-2.15-5.28-3.62
		c-1.55-1.45-2.94-3.13-3.96-5.01c-1.07-1.88-1.61-3.96-2.22-5.97l-1.58-6.13c-0.51-2.04-1.11-4.05-1.96-5.96
		c-0.35-0.99-0.9-1.87-1.34-2.86c-0.22-0.49-0.4-0.99-0.57-1.5c-0.08-0.26-0.16-0.51-0.22-0.78c-0.03-0.14-0.06-0.27-0.06-0.44
		c0.01-0.09-0.02-0.17,0.11-0.34c0.05-0.08,0.19-0.12,0.27-0.11c0.08,0.01,0.13,0.03,0.18,0.05c0.31,0.18,0.45,0.38,0.65,0.57
		c0.19,0.19,0.36,0.39,0.54,0.6c0.35,0.4,0.67,0.83,0.99,1.26c0.63,0.87,1.19,1.74,1.73,2.69l-0.01-0.01l1.42,2.46
		c0.45,0.83,1,1.61,1.61,2.32c0.6,0.72,1.35,1.28,2.26,1.41c0.43,0.07,0.9-0.01,1.2-0.28c0.32-0.3,0.59-0.7,0.85-1.09
		c0.26-0.39,0.42-0.82,0.66-1.25c0.24-0.42,0.51-0.84,0.87-1.18c0.34-0.32,0.62-0.69,0.9-1.07c0.28-0.37,0.49-0.82,0.89-1.15
		c0.35-0.32,0.78-0.65,1.3-0.71c0.13-0.02,0.26-0.01,0.39,0c0.14,0.01,0.28,0.09,0.37,0.14c0.21,0.1,0.42,0.19,0.65,0.28
		c0.43,0.15,0.91,0.4,1.29,0.31c0.17-0.03,0.28-0.27,0.43-0.46l0.44-0.57c0.3-0.34,0.57-0.84,1.12-0.94
		c0.52-0.08,0.99,0.09,1.45,0.22c0.91,0.29,1.8,0.66,2.65,1.1c0.87,0.4,1.63,1.02,2.48,1.4c0.84,0.32,1.95,0.44,2.58-0.31
		c0.63-0.7,0.83-1.67,1.1-2.58c0.24-0.91,0.23-1.88,0.26-2.82l0.08-5.71l0,0C87.45,23.07,87.59,22.18,87.91,21.35z"/>
</g>
<g>
	<path d="M74.5,36.74c-0.96,0.5-1.73,1.29-2.43,2.1c-0.33,0.42-0.71,0.8-1.03,1.23l-0.22,0.32c-0.03,0.05-0.07,0.11-0.08,0.15
		c-0.01,0.02-0.01,0.03-0.01,0.01c0,0.01,0.01,0.03,0.02,0.04c0.06,0.15,0.32,0.29,0.54,0.38c1.97,0.7,4.28,0.78,6.3,0.08
		c1.01-0.35,1.94-0.89,2.71-1.61c0.38-0.36,0.79-0.74,0.93-1.18c0.15-0.43-0.14-0.83-0.58-1.09c-0.88-0.5-1.97-0.72-3.01-0.89
		C76.58,36.14,75.47,36.27,74.5,36.74z M74.48,36.71c1.96-0.97,4.37-0.89,6.38,0.12c0.25,0.15,0.49,0.34,0.66,0.62
		c0.17,0.27,0.22,0.65,0.1,0.95c-0.23,0.6-0.68,0.96-1.07,1.33c-0.82,0.75-1.85,1.24-2.9,1.54c-1.06,0.3-2.15,0.4-3.23,0.41
		c-1.08-0.02-2.18-0.04-3.25-0.39c-0.25-0.12-0.55-0.2-0.74-0.55c-0.02-0.05-0.04-0.09-0.05-0.15c-0.01-0.09,0.02-0.14,0.03-0.18
		c0.03-0.08,0.07-0.14,0.11-0.21c0.08-0.12,0.16-0.23,0.25-0.34c0.34-0.43,0.74-0.81,1.13-1.2c0.37-0.4,0.8-0.73,1.23-1.07
		C73.54,37.26,73.99,36.94,74.48,36.71z"/>
</g>
</svg>
